<?xml version="1.0" standalone="no"?>
<!DOCTYPE svg PUBLIC "-//W3C//DTD SVG 20010904//EN"
 "http://www.w3.org/TR/2001/REC-SVG-20010904/DTD/svg10.dtd">
<svg version="1.0" xmlns="http://www.w3.org/2000/svg"
 width="5000.000000pt" height="5000.000000pt" viewBox="0 0 5000.000000 5000.000000"
 preserveAspectRatio="xMidYMid meet">
<metadata>
Created by potrace 1.16, written by Peter Selinger 2001-2019
</metadata>
<g transform="translate(0.000000,5000.000000) scale(0.100000,-0.100000)"
fill="#000000" stroke="none">
<path d="M28423 40759 c-35 -8 -43 -16 -56 -47 -21 -52 -48 -73 -157 -123
-159 -73 -180 -87 -202 -135 -18 -41 -18 -47 -3 -89 19 -57 19 -98 0 -134 -19
-38 -44 -43 -109 -19 l-55 20 -74 -76 c-118 -121 -179 -132 -269 -48 -28 26
-57 44 -70 44 -13 0 -54 -11 -93 -25 -65 -23 -73 -23 -126 -11 -32 7 -74 25
-94 39 -22 14 -52 25 -72 25 -18 0 -57 12 -85 26 -45 23 -60 26 -114 21 -35
-3 -80 -14 -101 -23 -25 -10 -73 -17 -138 -19 -88 -3 -109 -7 -170 -35 -38
-17 -92 -41 -120 -53 -27 -11 -56 -25 -62 -30 -18 -13 -16 -81 4 -125 15 -32
18 -85 23 -367 5 -311 7 -333 28 -383 12 -29 22 -73 22 -98 0 -74 10 -84 88
-84 84 0 132 -13 166 -45 31 -28 54 -31 99 -11 180 80 196 86 251 86 52 0 60
-3 100 -40 35 -33 50 -40 82 -40 38 0 131 27 174 50 30 16 70 20 98 9 18 -7
37 -2 85 22 53 27 69 31 118 26 31 -3 67 -12 80 -20 13 -9 44 -19 69 -23 25
-4 78 -20 118 -35 60 -24 88 -29 159 -29 76 0 90 -3 118 -25 23 -17 35 -36 39
-62 12 -65 15 -70 71 -108 62 -43 75 -70 75 -160 0 -101 -56 -188 -170 -262
-30 -20 -75 -49 -99 -65 -49 -33 -119 -60 -198 -78 -41 -9 -60 -21 -90 -54
-43 -49 -89 -76 -128 -76 -14 0 -66 11 -115 25 -49 14 -106 25 -127 25 -21 0
-55 5 -75 10 -32 9 -53 6 -150 -24 -85 -26 -123 -34 -155 -29 -55 7 -122 -27
-175 -89 -54 -64 -87 -63 -155 8 -36 38 -49 83 -34 113 15 27 -4 67 -38 79
-42 15 -119 -1 -148 -31 -22 -21 -27 -36 -30 -99 -3 -49 1 -91 12 -128 9 -30
23 -89 32 -130 8 -41 21 -86 28 -100 7 -14 16 -48 20 -75 4 -28 16 -70 25 -95
10 -25 21 -70 25 -100 3 -30 11 -71 17 -90 7 -27 6 -44 -6 -71 -21 -49 -79
-99 -116 -99 -27 0 -30 -3 -30 -30 0 -16 6 -33 13 -37 21 -14 66 -79 73 -107
8 -33 11 -35 87 -53 68 -17 125 -19 202 -8 36 5 80 1 155 -15 58 -12 123 -26
144 -30 59 -12 351 6 416 25 30 10 69 15 88 11 38 -6 69 12 133 77 49 49 104
87 139 93 48 10 67 -21 96 -164 4 -21 6 -21 27 -7 26 17 56 11 126 -24 41 -21
44 -22 69 -5 15 10 35 26 46 36 26 24 57 23 90 -3 14 -11 38 -20 54 -19 56 4
72 -1 100 -31 l30 -32 114 18 c70 11 129 15 152 11 54 -10 96 -54 96 -101 0
-52 -12 -69 -75 -104 -30 -17 -55 -34 -55 -37 0 -3 29 -50 65 -104 41 -62 82
-112 112 -135 47 -35 93 -103 93 -136 0 -28 -25 -39 -95 -44 -58 -4 -75 -1
-122 22 -32 16 -76 50 -104 81 -30 33 -51 49 -53 40 -2 -7 -9 -28 -15 -47 -16
-50 -14 -79 9 -111 17 -24 27 -28 71 -28 38 -1 77 -13 157 -48 203 -90 261
-145 242 -228 -8 -38 -7 -41 43 -93 45 -46 59 -54 107 -63 64 -11 126 -36 155
-61 11 -10 32 -20 47 -24 26 -7 26 -6 33 52 9 80 67 197 105 213 27 11 69 6
80 -10 10 -14 113 -80 124 -80 7 0 27 -15 45 -34 34 -36 40 -65 26 -141 -6
-37 -5 -42 17 -52 27 -12 59 -9 130 13 26 9 66 14 90 12 41 -3 47 0 106 57
103 98 153 117 247 95 56 -13 252 12 356 45 46 14 102 32 124 38 52 16 68 49
94 192 16 90 18 131 12 227 l-7 117 -59 76 c-32 43 -102 115 -156 161 -53 46
-106 95 -117 109 -41 52 -37 165 8 193 17 11 28 9 65 -7 l45 -20 43 43 c65 66
91 78 182 85 84 6 115 20 115 50 0 23 34 53 90 82 39 20 60 23 161 23 111 1
116 0 148 -26 19 -17 44 -28 62 -28 26 0 32 6 49 45 14 33 29 50 51 59 17 7
28 16 23 19 -5 3 -57 11 -114 17 -58 6 -130 18 -161 26 -89 22 -120 18 -204
-26 -42 -22 -85 -40 -95 -40 -11 0 -52 -11 -92 -25 -75 -25 -196 -45 -274 -45
-25 0 -60 -6 -78 -14 -69 -29 -146 -169 -146 -267 0 -88 141 -349 272 -501 63
-74 90 -132 76 -167 -14 -39 -47 -69 -82 -77 -17 -3 -60 -23 -96 -42 l-65 -36
-191 2 c-133 1 -208 6 -249 17 -75 19 -385 21 -418 3 -14 -8 -52 -11 -102 -9
-130 5 -197 4 -250 -4 -45 -6 -54 -4 -91 22 -106 73 -163 121 -194 162 -19 25
-69 81 -112 123 -90 88 -92 95 -54 216 28 91 56 217 56 252 0 14 -9 54 -20 90
-11 36 -20 86 -20 111 0 57 -14 70 -78 76 -75 7 -85 10 -127 47 -21 19 -64 42
-95 52 -30 10 -64 24 -75 30 -73 43 -239 18 -365 -56 -30 -18 -48 -20 -125
-17 -49 2 -102 8 -118 12 -20 5 -42 0 -83 -19 -60 -29 -59 -29 -115 21 -31 29
-78 31 -139 8 -62 -23 -279 -39 -334 -24 -131 36 -214 47 -383 48 -188 2 -207
6 -252 55 -22 23 -24 31 -18 100 3 41 10 84 17 95 19 37 30 219 18 290 -11 58
-10 65 7 77 30 23 62 16 102 -20 21 -18 56 -39 78 -45 51 -14 140 -14 185 0
19 6 106 13 192 15 154 3 157 4 204 34 47 30 49 30 187 30 122 0 148 3 215 26
123 41 131 45 152 79 21 35 50 50 115 60 22 3 67 15 101 26 52 17 66 27 94 67
41 58 58 73 137 118 65 37 172 136 204 188 20 33 26 101 9 111 -16 10 -50 82
-50 105 0 11 9 38 20 60 60 119 -24 272 -250 453 -85 68 -138 94 -205 101 -50
5 -73 15 -140 60 -127 84 -130 86 -251 117 l-116 29 -135 -19 -135 -20 -65 35
c-77 40 -97 41 -228 9 -123 -30 -178 -31 -250 -4 -47 17 -63 19 -107 10 -85
-16 -172 -22 -186 -12 -16 10 -18 181 -2 210 8 16 32 19 207 24 220 8 375 -3
529 -35 105 -22 188 -20 230 5 32 19 148 95 161 107 7 5 17 27 23 48 16 59 23
66 49 50 20 -12 21 -18 15 -104 -4 -50 -3 -98 2 -107 8 -13 12 -13 34 6 14 12
36 37 49 56 13 18 39 40 57 47 35 15 44 14 167 -19 75 -21 359 -26 382 -7 21
17 19 62 -4 91 -42 54 -150 276 -159 329 -23 125 12 150 222 157 147 5 178 13
207 54 25 35 58 38 113 9 24 -12 58 -19 90 -19 28 1 64 -4 79 -10 16 -6 52
-11 80 -11 55 0 84 -14 168 -79 43 -32 46 -33 113 -28 65 6 70 5 96 -21 41
-41 54 -113 55 -290 0 -204 -15 -192 235 -192 103 0 211 5 241 10 29 6 94 15
144 20 61 7 105 19 137 35 61 32 68 31 104 -6 38 -40 50 -46 141 -69 93 -23
183 -25 278 -5 86 18 119 19 170 1 26 -9 91 -14 187 -15 200 -1 239 -12 279
-78 12 -21 42 -56 66 -78 42 -38 45 -44 54 -113 10 -88 17 -101 91 -180 32
-35 74 -95 94 -135 68 -135 147 -206 283 -252 95 -32 231 -34 343 -6 329 84
576 79 824 -20 40 -15 87 -37 105 -48 38 -24 74 -26 129 -10 56 17 100 4 159
-46 29 -25 59 -45 68 -45 8 0 48 -13 90 -30 82 -33 113 -29 113 14 0 36 -66
226 -87 248 -10 11 -32 30 -50 42 -17 11 -67 49 -111 83 -78 59 -85 62 -199
87 -65 15 -143 34 -173 42 -126 35 -307 65 -540 90 -177 18 -222 13 -271 -30
-34 -31 -41 -33 -137 -40 -137 -9 -202 4 -252 53 -23 21 -113 140 -128 168 -7
12 -12 62 -12 111 l0 90 -63 88 c-34 49 -82 128 -106 176 -24 49 -50 93 -57
99 -8 6 -14 17 -14 24 0 19 -77 85 -119 102 -55 24 -458 11 -561 -18 -40 -11
-82 -25 -94 -31 -38 -21 -107 -26 -165 -13 -96 22 -154 26 -206 15 -27 -6 -76
-14 -107 -17 -51 -5 -64 -2 -117 26 -33 17 -70 31 -81 31 -30 0 -91 -28 -120
-54 -33 -31 -86 -47 -159 -49 -69 -2 -95 15 -111 73 -11 43 -29 61 -85 86 -33
16 -46 31 -75 90 -33 66 -66 121 -157 263 -78 120 -185 184 -328 196 l-80 6
-70 -45 c-76 -49 -127 -62 -200 -52 -46 7 -84 36 -134 101 l-23 30 -141 6
c-78 4 -149 9 -157 12 -8 3 -34 1 -57 -4z"/>
<path d="M22683 39065 c-44 -7 -96 -17 -115 -23 -18 -6 -67 -13 -108 -16 -41
-3 -96 -12 -123 -20 -26 -9 -104 -22 -173 -31 -157 -21 -293 -70 -369 -135
-11 -10 -43 -25 -71 -34 -56 -18 -77 -37 -89 -76 -20 -65 -164 -232 -220 -256
-36 -15 -70 -50 -80 -84 -3 -14 -10 -80 -14 -147 -7 -140 -15 -156 -97 -211
-43 -30 -54 -33 -89 -27 -66 11 -95 7 -144 -22 -107 -64 -171 -76 -252 -47
-34 12 -83 15 -223 14 -161 -1 -184 -3 -230 -23 -39 -17 -70 -22 -132 -22 -73
0 -84 3 -118 28 -50 38 -84 47 -142 35 -27 -5 -140 -9 -251 -8 -240 1 -262 -5
-333 -91 -25 -29 -53 -61 -62 -71 -35 -35 -50 -69 -59 -133 -11 -78 -27 -112
-79 -169 -32 -35 -41 -53 -49 -107 -6 -35 -11 -67 -11 -71 0 -3 -11 -19 -24
-35 -13 -15 -27 -39 -31 -53 -4 -14 -15 -43 -25 -65 -20 -44 -39 -100 -74
-215 -12 -41 -32 -93 -43 -115 -12 -22 -31 -60 -43 -85 -41 -85 -48 -94 -91
-117 -52 -28 -70 -25 -184 23 -45 19 -87 34 -95 34 -8 0 -52 18 -97 41 l-82
41 -73 -17 c-40 -9 -105 -27 -145 -40 -39 -14 -91 -25 -115 -25 -24 0 -52 -6
-64 -13 -49 -29 -147 -114 -160 -139 -18 -36 -85 -78 -122 -78 -18 0 -41 12
-65 34 -30 27 -37 41 -37 70 0 30 5 40 29 53 30 18 56 51 47 61 -11 10 -94 5
-125 -8 -21 -8 -50 -10 -86 -6 -70 8 -103 -6 -197 -81 -77 -62 -99 -85 -205
-208 -205 -239 -242 -260 -326 -181 l-29 27 -25 -28 c-56 -62 -165 -223 -204
-299 -36 -73 -42 -93 -52 -194 -8 -86 -8 -126 2 -174 21 -101 70 -236 99 -271
43 -52 133 -121 177 -135 22 -7 50 -19 61 -27 28 -18 156 -31 319 -34 72 -1
140 -1 151 0 20 1 59 28 129 87 44 38 105 71 144 78 30 5 38 2 68 -30 19 -20
37 -50 40 -65 3 -16 11 -33 17 -36 6 -4 51 -8 100 -10 81 -2 92 0 121 23 55
42 173 26 190 -25 3 -11 7 -46 9 -78 3 -53 15 -87 67 -199 25 -53 26 -159 2
-194 -26 -37 -45 -49 -79 -50 -18 0 -39 -8 -49 -20 -17 -19 -18 -28 -7 -109
14 -100 15 -325 3 -387 -12 -61 -60 -128 -95 -132 -61 -7 -122 98 -133 230 -3
38 -12 73 -19 79 -18 15 -57 -15 -85 -66 l-22 -41 28 -54 c39 -78 43 -147 15
-283 -28 -130 -69 -227 -134 -313 -29 -40 -46 -72 -46 -90 0 -28 -28 -91 -82
-184 -33 -58 -74 -202 -88 -310 -18 -135 -51 -217 -139 -349 -83 -124 -195
-331 -210 -389 -6 -20 -24 -57 -41 -82 -16 -25 -42 -63 -57 -85 -15 -22 -34
-67 -44 -100 -10 -33 -31 -107 -49 -165 -17 -57 -37 -134 -45 -170 -15 -72
-57 -188 -80 -224 -9 -13 -22 -54 -30 -92 -23 -107 -31 -130 -65 -178 -30 -41
-55 -114 -44 -126 3 -3 33 -4 67 -2 87 3 143 34 180 97 55 94 165 363 207 505
17 60 75 208 120 305 30 66 80 175 122 264 55 117 68 155 79 245 9 70 19 97
86 225 42 80 90 171 108 201 18 30 51 91 75 135 24 44 57 95 73 113 30 31 33
32 112 32 74 0 84 2 105 25 13 13 42 32 65 40 39 16 50 15 226 -15 148 -24
209 -30 309 -28 145 2 169 -5 388 -116 170 -85 173 -86 246 -36 32 22 69 40
82 40 13 0 41 -15 61 -34 50 -44 75 -56 115 -56 78 0 553 72 663 101 72 19 85
26 130 74 28 29 105 92 173 139 74 53 139 108 163 138 40 51 104 108 120 108
23 0 49 42 49 79 0 48 -32 211 -61 306 -39 133 -43 172 -25 239 38 137 173
359 239 394 17 10 46 32 65 50 26 26 37 31 47 22 11 -9 29 -6 77 10 35 13 70
28 78 35 19 16 214 114 295 148 33 13 95 33 137 43 68 15 84 16 130 4 29 -7
134 -16 233 -20 170 -6 185 -9 264 -39 46 -17 139 -43 208 -57 177 -35 196
-45 244 -117 92 -139 115 -217 107 -375 -4 -85 -9 -106 -38 -164 -26 -53 -44
-75 -86 -103 -29 -20 -61 -48 -70 -63 -10 -15 -67 -86 -128 -160 -61 -73 -124
-151 -141 -173 -29 -39 -29 -39 -9 -59 12 -12 45 -25 84 -31 86 -15 111 -35
161 -126 76 -137 209 -245 353 -287 80 -23 228 -35 451 -36 105 0 260 -5 345
-10 362 -22 490 -23 615 -6 76 11 140 26 174 42 30 13 90 33 135 44 74 18 85
24 126 69 52 56 76 71 120 71 42 0 82 -22 118 -66 26 -32 38 -37 82 -42 37 -3
58 -12 80 -32 35 -33 39 -79 16 -182 -8 -36 -19 -178 -26 -336 -6 -150 -15
-306 -20 -345 -4 -40 -12 -124 -15 -187 -8 -125 -24 -176 -61 -190 -13 -5 -64
-4 -121 1 -54 6 -190 12 -303 12 -180 2 -215 -1 -290 -19 -47 -12 -128 -30
-180 -39 -95 -17 -95 -17 -143 -70 -42 -48 -56 -56 -131 -80 -68 -21 -95 -26
-134 -20 -59 8 -85 -3 -152 -64 -54 -49 -97 -71 -138 -71 -51 0 -78 -16 -167
-99 -79 -73 -142 -119 -309 -225 -70 -45 -185 -159 -220 -218 -14 -24 -30 -65
-36 -93 -6 -27 -18 -66 -27 -85 -9 -19 -29 -64 -44 -100 -15 -36 -48 -92 -73
-126 -24 -33 -58 -87 -74 -120 -36 -71 -105 -268 -122 -344 -6 -30 -18 -84
-25 -120 -8 -36 -19 -157 -25 -270 -10 -190 -9 -214 9 -320 64 -364 90 -450
192 -632 45 -79 89 -156 100 -173 10 -16 26 -43 35 -60 30 -53 132 -181 157
-198 14 -9 45 -20 69 -23 87 -14 144 -61 161 -135 4 -14 16 -38 28 -53 23 -29
156 -121 254 -176 33 -18 87 -52 120 -74 51 -35 84 -48 210 -80 106 -27 182
-40 260 -45 82 -4 117 -11 135 -23 14 -10 35 -25 46 -33 18 -14 69 -16 349
-15 341 0 388 -5 422 -43 16 -17 18 -42 18 -211 0 -180 1 -193 23 -231 33 -60
33 -65 -39 -317 -23 -80 -24 -138 -4 -204 8 -27 19 -107 25 -178 11 -128 5
-260 -30 -706 -6 -69 -13 -224 -16 -345 -7 -243 -13 -285 -49 -313 -56 -44
-1057 -35 -1510 14 -137 15 -269 27 -293 26 -49 -3 -107 -24 -137 -51 -39 -35
-73 -39 -180 -20 -206 37 -284 44 -334 29 -25 -7 -100 -14 -166 -16 -66 -2
-127 -3 -135 -4 -30 -1 -43 -17 -36 -43 4 -19 25 -36 74 -63 37 -21 90 -56
119 -79 51 -42 52 -42 157 -49 59 -4 154 -15 212 -26 198 -35 323 -45 426 -32
53 7 169 10 268 8 343 -8 767 -24 875 -35 307 -29 382 -34 529 -33 182 2 200
8 209 69 4 25 19 51 43 76 39 40 71 46 114 22 22 -12 27 -11 43 2 14 13 17 33
17 101 0 47 5 136 10 196 6 61 15 235 20 386 7 219 13 295 30 375 12 55 21
125 20 155 -3 101 -3 194 1 315 4 118 5 121 48 209 l44 89 -8 206 c-5 113 -9
274 -10 356 -2 83 -6 171 -10 197 -4 29 -3 61 4 80 6 18 17 120 23 229 13 220
8 253 -40 263 -15 3 -100 10 -189 16 -89 6 -185 15 -214 20 -113 22 -364 -1
-626 -57 -46 -9 -105 -14 -165 -11 -89 3 -99 6 -243 69 -82 37 -166 70 -185
74 -59 13 -143 54 -190 94 -25 21 -56 42 -70 46 -14 4 -55 23 -92 41 -37 19
-78 34 -91 34 -46 0 -102 54 -157 152 -50 88 -97 144 -265 319 -48 50 -65 75
-70 105 -12 70 -27 106 -60 143 -30 33 -33 43 -40 127 -7 89 -6 92 24 149 l31
58 0 273 c0 165 -5 301 -12 343 -24 138 38 331 138 436 44 47 114 100 161 124
33 16 57 42 103 111 377 560 965 821 1660 735 209 -26 300 -57 285 -97 -10
-26 -29 -28 -107 -10 -118 26 -420 23 -566 -6 -131 -26 -315 -84 -352 -110
-14 -10 -50 -28 -80 -41 -143 -61 -308 -158 -419 -248 -176 -141 -416 -418
-466 -535 -11 -27 -11 -35 1 -54 13 -19 11 -31 -20 -119 -19 -53 -45 -150 -56
-214 -12 -64 -32 -160 -46 -213 -25 -99 -29 -176 -15 -262 6 -36 3 -71 -11
-135 -20 -91 -18 -140 8 -162 19 -16 107 -150 153 -232 18 -34 38 -90 46 -135
45 -236 52 -259 90 -300 l33 -37 22 28 c40 51 76 36 181 -74 65 -68 80 -79
109 -79 22 0 57 -14 99 -40 88 -53 191 -90 249 -90 47 0 160 -28 200 -49 11
-6 54 -18 94 -27 63 -13 91 -14 201 -3 108 10 133 15 155 34 33 28 179 75 233
75 22 0 72 -11 112 -25 113 -40 177 -43 267 -10 106 38 151 42 200 16 47 -24
169 -30 241 -11 61 16 86 3 95 -48 3 -20 15 -52 25 -70 11 -19 33 -84 49 -146
40 -155 47 -171 64 -156 13 10 43 61 88 150 14 28 19 83 29 290 11 264 8 354
-17 402 -12 24 -19 27 -47 22 -88 -15 -177 -39 -221 -61 -66 -33 -134 -39
-232 -19 -77 16 -84 16 -184 -4 -100 -20 -211 -54 -268 -84 -20 -10 -64 -14
-153 -14 -69 0 -150 -3 -181 -7 -39 -5 -81 -1 -151 14 -53 12 -121 21 -151 21
-92 0 -206 20 -264 47 -56 25 -66 26 -159 5 -36 -8 -49 -5 -100 19 -48 23
-155 104 -224 169 -27 26 -72 61 -126 97 -66 45 -90 92 -109 220 -15 95 -14
208 2 355 6 52 4 62 -24 105 -53 85 -51 110 14 187 25 29 37 58 49 115 54 249
120 394 237 515 22 22 51 64 64 93 14 28 43 70 66 93 47 47 174 112 263 135
33 8 98 29 145 46 287 104 454 142 678 155 114 6 142 4 219 -14 235 -57 290
-61 446 -36 80 13 116 14 172 6 38 -6 97 -14 130 -17 33 -3 68 -8 77 -11 10
-3 28 5 41 18 20 20 25 38 30 112 4 48 16 113 28 144 18 50 22 97 32 397 14
427 13 553 -8 718 -15 122 -15 139 0 222 12 63 18 172 22 360 2 152 9 282 15
298 11 28 47 45 69 31 7 -4 69 -11 138 -15 69 -5 182 -15 251 -24 97 -12 217
-16 536 -15 419 0 627 -8 882 -36 83 -9 189 -14 250 -12 91 4 119 9 189 37 97
38 174 102 215 179 44 82 73 299 46 357 -6 14 -51 55 -100 91 -48 36 -100 82
-113 102 -30 43 -57 128 -51 159 16 79 17 125 5 209 -12 90 -11 98 9 162 15
46 37 85 66 120 25 29 54 66 66 82 26 36 119 109 179 140 165 83 462 150 671
150 191 0 436 -37 625 -95 47 -15 311 -144 381 -186 17 -10 53 -22 80 -25 63
-9 99 -27 151 -77 30 -29 46 -54 55 -90 9 -35 28 -66 65 -108 29 -33 55 -69
57 -82 33 -180 33 -268 1 -389 -14 -51 -28 -133 -31 -183 -5 -80 -3 -98 20
-164 38 -110 146 -230 254 -283 43 -20 44 -20 220 -3 167 16 183 16 287 0 90
-14 211 -18 665 -22 492 -5 567 -3 660 12 58 9 184 21 280 25 183 8 210 14
249 51 17 16 36 22 69 23 42 1 47 -2 98 -58 91 -99 123 -172 168 -379 10 -45
38 -119 66 -175 27 -53 73 -149 103 -212 30 -63 66 -129 80 -146 37 -44 47
-76 47 -148 0 -54 6 -75 46 -157 59 -121 176 -405 220 -534 83 -247 133 -371
165 -409 66 -79 227 -178 340 -209 89 -25 187 -30 269 -13 85 18 111 33 148
86 42 61 80 72 205 58 l104 -12 67 32 c114 54 259 75 373 53 26 -6 86 -17 133
-27 229 -44 333 -77 728 -228 187 -71 321 -156 522 -329 362 -313 589 -613
689 -908 44 -129 49 -160 56 -348 3 -74 12 -161 21 -194 9 -34 12 -72 8 -91
-9 -43 -71 -124 -134 -171 -29 -22 -84 -70 -124 -106 -53 -49 -99 -79 -181
-118 -60 -30 -113 -58 -117 -64 -14 -23 27 -56 82 -67 30 -6 78 -18 106 -26
66 -18 98 -18 137 2 75 39 240 165 293 223 21 25 49 56 62 69 12 14 22 30 22
35 0 6 6 18 13 26 20 24 65 140 78 201 30 138 8 437 -42 578 -17 48 -40 112
-50 142 -68 195 -121 303 -222 450 -17 25 -55 81 -85 125 -95 142 -216 278
-474 534 -199 197 -236 223 -318 226 -30 1 -60 3 -67 4 -7 0 -36 20 -65 44
-82 66 -108 79 -183 98 -65 16 -114 33 -305 104 -75 28 -149 51 -275 85 -38
11 -107 34 -153 51 -80 31 -84 32 -140 19 -32 -7 -114 -12 -190 -12 -113 1
-139 4 -180 23 -105 48 -125 50 -220 28 -49 -12 -107 -33 -132 -49 -78 -50
-184 -99 -238 -111 -39 -8 -75 -8 -134 0 -109 15 -172 51 -215 124 -18 31 -33
58 -33 62 0 7 -49 123 -75 180 -8 17 -28 64 -45 105 -17 41 -41 100 -54 130
-13 30 -38 89 -56 130 -77 180 -166 356 -205 405 -40 51 -82 126 -105 190 -62
171 -81 225 -95 270 -17 59 -55 164 -79 217 -9 21 -16 41 -16 45 0 4 -23 53
-51 109 -34 70 -61 111 -85 129 -46 35 -133 64 -226 75 -46 5 -96 19 -125 33
-26 14 -71 32 -100 40 -48 15 -61 14 -159 -3 -58 -10 -116 -25 -128 -33 -12
-8 -53 -27 -90 -42 -60 -24 -77 -27 -132 -21 -46 5 -91 1 -165 -14 -136 -28
-183 -19 -242 46 -38 41 -47 46 -107 54 -91 13 -210 12 -310 -3 -72 -11 -95
-19 -146 -54 -66 -45 -141 -66 -284 -78 -80 -7 -133 1 -223 35 -56 21 -135 92
-197 177 -42 57 -65 166 -50 238 6 28 11 107 12 176 l2 124 -49 90 c-48 88
-89 144 -170 235 -23 25 -58 72 -79 105 -22 33 -49 76 -61 95 -25 38 -47 87
-64 139 -6 18 -35 70 -65 115 -59 88 -97 117 -211 156 -49 17 -110 52 -125 71
-3 3 -25 15 -51 26 -25 11 -61 34 -80 50 -40 35 -130 77 -207 97 -60 16 -76
12 -120 -28 -21 -19 -34 -21 -121 -19 -98 2 -133 10 -336 83 -38 14 -86 22
-135 23 -65 1 -82 -2 -121 -25 -35 -21 -73 -31 -165 -43 -244 -33 -282 -48
-326 -127 -12 -21 -38 -49 -59 -62 -71 -48 -111 -90 -187 -199 -41 -60 -88
-117 -103 -126 -37 -22 -59 -51 -100 -131 -33 -62 -34 -69 -34 -175 0 -86 4
-115 17 -135 24 -36 38 -126 45 -285 5 -129 8 -146 39 -215 40 -92 60 -215 44
-264 -29 -90 -131 -96 -191 -13 -47 65 -46 65 -271 20 -125 -25 -129 -25 -238
-10 -98 14 -115 19 -145 46 -35 30 -35 30 -147 29 -102 -2 -119 1 -175 25 -74
32 -170 36 -323 13 -174 -27 -375 -38 -445 -24 -56 10 -71 9 -117 -6 -34 -12
-105 -20 -201 -25 -146 -7 -149 -8 -178 -37 -16 -16 -35 -52 -43 -79 -28 -100
-66 -191 -98 -235 l-32 -45 -3 -160 c-2 -88 -6 -234 -11 -325 -4 -91 -7 -312
-6 -491 1 -187 -2 -347 -8 -375 -6 -27 -13 -130 -17 -229 l-6 -180 -30 -3
c-54 -4 -57 4 -56 139 1 68 4 138 6 154 6 35 17 474 19 725 1 144 -3 198 -22
302 l-24 127 22 82 c30 115 40 370 17 415 l-16 31 -53 -14 c-85 -23 -108 -17
-311 76 -48 22 -53 22 -282 14 -229 -9 -234 -9 -271 -35 -57 -39 -87 -48 -167
-48 -60 0 -77 4 -109 26 -21 15 -38 35 -38 45 0 10 -11 26 -25 35 -41 27 -97
28 -173 5 -117 -35 -264 -65 -322 -64 -116 1 -195 17 -240 48 -39 27 -51 30
-136 32 -87 1 -96 4 -146 36 -29 18 -59 41 -67 50 -7 10 -24 17 -38 17 -24 0
-73 40 -73 59 0 6 18 34 41 63 58 77 125 220 156 334 23 87 26 118 26 254 0
136 -3 167 -26 250 -49 180 -140 356 -205 397 -15 9 -63 54 -107 99 -104 108
-147 120 -180 51 -25 -52 -44 -56 -154 -32 -112 25 -152 44 -202 95 l-36 37
-109 6 c-60 3 -153 4 -208 1 -103 -4 -163 6 -206 35 -14 10 -64 25 -112 34
-76 14 -92 15 -130 2 -24 -8 -85 -22 -137 -30 -93 -16 -329 -88 -388 -119 -17
-8 -49 -18 -72 -22 -50 -8 -53 3 -15 82 43 91 107 142 233 185 66 23 116 24
156 3 45 -24 101 -21 130 6 14 13 23 25 20 28 -14 14 76 119 105 123 6 1 15 2
22 3 6 0 13 7 16 14 2 7 0 12 -5 11 -4 -1 -15 0 -23 4 -40 15 -107 14 -181 -4
-48 -11 -116 -19 -168 -19 -138 0 -178 -20 -217 -106 -12 -29 -35 -61 -51 -72
-32 -23 -170 -92 -223 -112 -19 -7 -43 -20 -53 -29 -14 -12 -39 -15 -111 -13
-91 2 -95 1 -169 -37 -179 -93 -276 -195 -481 -510 -123 -189 -159 -263 -196
-411 -10 -41 -32 -120 -49 -174 -43 -140 -68 -159 -161 -123 -14 5 -92 13
-175 18 -161 9 -157 8 -225 30 -34 11 -98 13 -266 12 -219 -2 -223 -3 -295
-31 -41 -16 -100 -32 -132 -36 -40 -4 -85 -20 -144 -51 -88 -45 -103 -46 -132
-11 -11 13 -8 25 13 72 14 31 26 66 26 78 0 43 38 167 62 204 14 20 43 76 66
124 23 47 45 89 50 92 5 3 33 60 62 127 52 117 77 153 144 204 14 11 29 34 32
51 5 25 -1 38 -30 73 -42 50 -43 65 -15 168 25 91 22 161 -11 228 -26 53 -102
105 -199 135 -75 24 -114 25 -190 5 -81 -21 -213 -38 -313 -40 -72 -1 -92 -5
-110 -21 -37 -32 -76 -54 -98 -54 -11 0 -42 12 -69 27 l-49 28 -113 -28 c-105
-26 -122 -27 -215 -19 -95 8 -106 12 -214 68 -197 101 -245 176 -208 322 9 38
26 62 92 128 45 45 93 97 107 116 28 36 129 91 189 103 19 3 58 17 85 30 204
95 205 95 276 95 89 0 125 22 176 109 42 71 58 85 126 102 26 6 50 15 53 20 9
15 59 10 105 -10 59 -26 220 -28 332 -5 83 17 186 15 210 -4 19 -14 130 -42
170 -42 20 0 59 9 87 20 28 11 83 21 127 24 94 5 188 23 226 42 34 18 79 64
93 96 6 13 34 71 62 131 49 100 52 112 52 183 l0 76 57 82 c31 44 59 83 62 86
8 6 42 58 58 88 7 13 15 38 19 57 7 40 57 95 130 146 47 33 53 34 149 36 58 1
123 8 155 18 30 9 105 25 165 36 61 11 132 29 160 41 42 17 62 20 130 15 44
-3 112 -13 150 -22 56 -13 81 -15 125 -6 30 6 102 13 160 16 58 3 134 13 170
22 139 33 141 33 207 12 97 -32 245 -17 358 36 73 34 208 129 282 199 74 69
84 130 57 353 -5 42 -2 61 18 105 44 94 66 112 189 153 104 34 174 67 264 123
50 32 105 37 255 23 63 -6 189 -15 280 -21 260 -18 390 -60 440 -143 11 -17
36 -83 56 -147 21 -63 45 -132 56 -152 22 -46 23 -87 1 -186 -9 -42 -16 -90
-15 -107 4 -78 62 -128 226 -195 102 -42 103 -42 406 -55 63 -3 153 -7 200
-10 47 -3 200 -12 340 -21 140 -9 293 -19 340 -23 47 -5 111 -8 143 -7 53 1
62 5 88 33 39 44 68 50 102 21 25 -22 27 -29 29 -118 2 -77 -2 -107 -20 -158
-18 -50 -22 -84 -22 -173 0 -98 3 -115 24 -152 22 -38 28 -55 41 -126 2 -13
-2 -54 -10 -93 -19 -88 -19 -175 -1 -210 25 -48 144 -141 230 -179 69 -30 231
-35 341 -11 139 31 221 51 325 82 62 18 122 28 174 29 69 2 84 6 122 32 24 16
49 26 58 23 8 -3 31 -25 50 -49 25 -29 53 -49 93 -65 32 -13 92 -40 133 -61
53 -26 108 -44 185 -58 83 -16 114 -26 131 -43 99 -105 168 -186 184 -218 47
-92 35 -168 -41 -262 -28 -35 -60 -83 -71 -108 -29 -67 -44 -80 -95 -80 -54 0
-74 -10 -134 -65 -89 -83 -114 -94 -234 -105 -59 -6 -111 -13 -116 -15 -11 -7
-324 -8 -404 -1 -120 11 -267 37 -342 62 -176 59 -444 10 -562 -102 -20 -19
-39 -34 -43 -34 -15 0 -49 -82 -63 -153 -19 -91 -56 -379 -62 -477 -4 -65 -1
-83 21 -133 32 -70 32 -102 4 -237 -20 -98 -20 -114 -9 -240 6 -74 12 -155 12
-180 0 -51 18 -112 35 -117 16 -5 61 67 69 112 8 47 28 87 67 137 23 29 30 52
39 120 5 45 14 97 19 113 15 47 49 255 50 305 1 25 1 108 1 185 -1 152 17 264
47 304 38 52 69 66 140 66 56 0 79 -6 142 -37 97 -46 214 -88 248 -88 15 0 42
9 61 21 33 20 36 20 115 5 58 -12 152 -17 327 -20 135 -1 250 -6 256 -9 14 -9
56 9 98 39 17 12 59 34 94 49 62 26 65 26 112 11 61 -20 92 -20 132 0 47 24
300 287 354 368 86 130 140 312 130 441 -5 71 -60 253 -99 329 -50 98 -208
275 -278 311 -32 17 -169 55 -198 55 -12 0 -215 94 -267 123 -11 6 -92 13
-182 16 -145 5 -164 8 -185 27 -13 11 -40 31 -61 44 -60 36 -87 27 -221 -68
-33 -23 -65 -36 -109 -43 -34 -5 -75 -19 -90 -30 -16 -12 -51 -23 -82 -26 -51
-5 -54 -4 -99 37 l-47 43 -90 4 c-62 2 -98 -1 -117 -10 -15 -8 -39 -17 -55
-21 -23 -5 -30 -2 -48 26 -17 28 -19 43 -14 93 4 33 15 78 25 100 40 84 73
180 82 239 5 34 12 155 15 269 l5 208 -35 74 c-19 40 -46 80 -59 88 -12 9 -53
20 -90 25 -81 13 -131 35 -153 69 -9 13 -32 42 -52 64 -38 42 -72 49 -143 29
-42 -12 -119 2 -199 37 -76 33 -91 30 -140 -23 l-42 -46 -77 4 c-66 3 -85 9
-135 38 -107 64 -104 63 -170 53 -43 -7 -85 -6 -149 3 -85 13 -92 13 -131 -7
-23 -11 -78 -34 -122 -50 -67 -25 -84 -28 -107 -18 -14 6 -30 18 -34 27 -10
24 -14 319 -4 367 4 22 18 84 30 138 20 92 20 101 6 132 -18 38 -93 105 -146
132 -19 10 -42 23 -50 29 -8 6 -31 17 -50 24 -19 7 -56 30 -82 52 -26 21 -66
47 -90 57 -24 11 -59 37 -79 58 -28 30 -51 44 -99 57 -35 10 -92 33 -128 52
-72 38 -114 42 -259 19z m-2141 -4098 c-32 -33 -33 -35 -21 -79 12 -43 11 -50
-16 -110 -15 -34 -53 -96 -84 -136 -31 -41 -65 -87 -76 -102 -11 -16 -55 -74
-98 -130 -43 -55 -92 -131 -110 -168 l-32 -67 0 -210 c0 -115 2 -248 4 -295 3
-66 1 -92 -12 -117 -25 -48 -49 -56 -135 -49 l-74 7 -55 -41 c-95 -72 -134
-85 -248 -84 -79 1 -118 7 -184 29 -71 23 -94 26 -147 20 -59 -6 -63 -5 -98
25 l-36 32 -44 -17 c-30 -12 -56 -15 -78 -10 -18 4 -51 6 -74 6 -29 -1 -46 5
-60 20 -29 32 -3 67 66 91 73 25 186 48 233 48 36 0 77 -27 88 -58 2 -6 42
-13 99 -17 52 -4 128 -13 169 -21 112 -22 179 -19 221 10 68 46 79 118 21 131
-37 8 -54 27 -88 100 l-28 60 2 204 c2 112 7 220 13 240 5 20 36 68 68 106 78
94 167 228 222 333 62 120 94 165 148 207 60 47 107 46 137 -2 11 -17 29 -33
40 -35 11 -2 67 17 125 43 155 68 154 68 164 68 6 1 -5 -14 -22 -32z m-2229
-1283 c57 -16 102 -35 107 -45 5 -8 6 -37 2 -64 -6 -43 -12 -53 -47 -76 -22
-15 -58 -31 -80 -35 -22 -3 -50 -13 -62 -22 -48 -31 -150 5 -177 62 -18 39
-11 66 21 85 17 9 17 10 0 28 -23 26 -23 28 21 72 44 45 42 45 215 -5z"/>
<path d="M22018 35556 c-41 -21 -43 -23 -41 -65 1 -23 7 -48 13 -56 14 -17
-35 -51 -53 -37 -25 21 -75 20 -117 -1 -36 -17 -39 -21 -25 -30 18 -10 82 -11
125 -2 14 3 51 0 83 -6 43 -9 64 -9 83 0 22 10 24 15 18 48 -3 21 -10 42 -15
48 -13 13 -11 89 2 102 21 21 -30 21 -73 -1z"/>
<path d="M14580 31119 c-14 -12 -38 -28 -55 -35 -16 -8 -37 -18 -45 -24 -23
-14 -131 -60 -142 -60 -11 0 -289 -107 -304 -118 -7 -4 -36 -23 -65 -43 -30
-20 -76 -49 -104 -65 -27 -15 -76 -47 -107 -71 -32 -23 -99 -66 -149 -94 -50
-29 -131 -85 -178 -125 -94 -78 -248 -235 -284 -289 -12 -18 -52 -75 -88 -126
-78 -110 -157 -262 -204 -391 -8 -20 -29 -61 -48 -91 -44 -68 -52 -125 -37
-253 13 -118 31 -189 67 -266 28 -61 40 -69 66 -40 12 14 15 44 15 152 0 175
19 280 64 351 18 30 49 90 68 134 18 44 44 96 57 116 23 35 341 344 433 421
25 21 54 46 65 56 21 19 178 151 224 188 65 52 167 117 219 140 164 73 359
138 507 169 43 9 101 26 129 39 68 32 283 43 372 20 31 -8 98 -19 148 -24 116
-12 313 -46 351 -60 15 -6 56 -31 89 -56 95 -72 133 -88 201 -88 71 1 137 35
175 91 32 47 71 89 95 102 11 6 15 11 8 11 -22 0 -63 73 -63 111 0 31 7 42 45
73 25 21 45 42 45 47 0 5 -49 9 -111 9 -98 0 -117 3 -160 24 -128 65 -179 76
-342 76 -174 0 -281 -20 -643 -116 -160 -43 -202 -29 -227 72 -10 41 -16 49
-37 52 -16 2 -36 -6 -50 -19z"/>
<path d="M14629 28831 c-42 -10 -91 -23 -109 -29 -18 -7 -61 -12 -96 -12 l-62
0 -36 -55 c-21 -30 -46 -60 -57 -65 -11 -6 -56 -15 -102 -20 -45 -6 -113 -17
-152 -25 -38 -8 -95 -15 -125 -15 -30 -1 -77 -5 -105 -11 -57 -10 -332 -32
-415 -32 -41 0 -74 8 -130 33 -96 43 -117 59 -160 122 -25 36 -53 61 -95 85
-71 40 -97 37 -139 -14 -16 -19 -48 -47 -72 -62 l-44 -27 18 -34 c17 -34 18
-35 72 -32 69 4 92 -12 155 -108 45 -68 126 -148 179 -177 16 -8 40 -12 55
-10 14 3 50 11 79 18 72 16 118 2 161 -51 37 -46 66 -51 145 -24 64 22 106 12
158 -37 l43 -41 100 5 c184 10 361 89 535 238 137 118 194 150 264 152 65 1
83 -11 98 -70 16 -65 39 -72 128 -39 82 30 134 33 210 10 44 -13 67 -29 121
-84 76 -76 105 -141 96 -213 -25 -198 -27 -231 -18 -240 5 -5 12 7 16 32 4 23
13 48 21 55 21 21 64 148 64 188 0 35 -31 134 -68 220 -54 123 -159 241 -276
310 -64 38 -80 42 -205 59 -161 22 -156 22 -252 0z"/>
<path d="M30210 28784 c-14 -2 -65 -9 -115 -15 -115 -14 -238 -46 -395 -103
-221 -79 -259 -98 -325 -164 -33 -33 -103 -88 -155 -123 -62 -41 -131 -100
-198 -168 -143 -147 -179 -196 -193 -262 -10 -47 -45 -126 -118 -264 -54 -102
-121 -249 -121 -264 0 -9 -6 -25 -13 -36 -15 -23 -72 -181 -86 -240 -27 -118
-62 -244 -74 -275 -43 -104 -47 -414 -8 -625 34 -184 50 -258 66 -305 20 -63
93 -311 116 -395 20 -75 49 -150 91 -230 14 -27 37 -81 52 -118 15 -38 35 -81
44 -96 94 -156 103 -173 100 -199 -4 -32 -13 -35 -173 -57 -253 -35 -332 -47
-405 -64 -91 -22 -351 -22 -414 -2 -54 18 -111 9 -192 -30 l-69 -34 2 -40 c12
-205 15 -225 33 -225 22 0 50 26 50 46 0 26 47 64 79 64 17 0 74 -16 127 -35
112 -40 174 -51 201 -37 10 6 39 29 63 51 74 68 147 65 180 -6 19 -40 53 -43
119 -11 28 13 64 22 95 22 41 0 52 -4 71 -28 46 -58 70 -66 197 -66 207 0 332
59 394 186 24 49 26 63 22 133 -6 97 -33 149 -115 218 -114 96 -146 129 -186
188 -51 75 -55 129 -14 189 15 21 27 49 27 61 0 30 -43 83 -108 130 -106 78
-226 229 -287 360 -15 33 -37 83 -50 110 -13 28 -29 70 -35 95 -7 25 -19 53
-27 62 -14 15 -14 31 -4 118 6 55 11 125 11 155 0 43 5 58 22 75 12 11 25 20
28 20 3 0 26 -48 50 -107 24 -60 49 -115 56 -123 7 -9 20 -31 29 -50 8 -19 19
-42 24 -50 5 -8 23 -44 41 -80 45 -91 91 -160 106 -160 20 0 44 54 44 97 0 40
-22 83 -43 83 -25 0 -87 62 -112 112 -14 28 -32 80 -40 117 -9 36 -21 86 -27
111 -6 25 -11 124 -11 220 -1 144 2 181 16 207 20 38 63 73 89 73 20 0 48 52
48 90 0 11 17 55 39 98 21 42 53 127 71 187 55 188 92 248 187 308 21 13 46
33 55 44 17 19 16 21 -26 66 -24 25 -56 65 -70 89 -29 50 -43 140 -27 180 29
76 346 229 506 245 54 5 64 3 89 -18 19 -17 29 -37 33 -67 4 -29 12 -46 26
-54 28 -15 91 -4 124 22 142 110 167 120 290 126 74 4 108 10 141 27 23 12 42
25 42 29 0 17 111 79 184 102 106 35 169 34 243 -3 32 -16 98 -39 148 -51 128
-30 334 -96 420 -135 28 -13 84 -38 125 -55 171 -74 258 -120 308 -163 l54
-45 91 -4 c62 -2 105 -10 132 -22 120 -55 285 -140 285 -146 0 -3 30 -31 67
-61 138 -111 202 -190 229 -279 9 -30 48 -94 105 -172 83 -113 135 -175 303
-366 32 -37 69 -91 83 -119 13 -29 28 -53 33 -53 5 0 12 -17 16 -37 3 -21 15
-52 26 -70 22 -37 50 -193 41 -234 -6 -29 -41 -73 -82 -99 l-23 -15 21 -75
c56 -204 63 -258 68 -490 5 -219 6 -227 34 -302 19 -47 39 -82 53 -92 23 -15
24 -14 30 22 3 20 6 77 6 126 0 50 5 116 12 147 10 48 9 69 -6 136 -17 77 -17
79 7 207 l24 130 -23 125 c-30 162 -62 287 -86 331 -10 19 -18 44 -18 56 0 12
-11 37 -24 57 -13 19 -27 50 -31 68 -4 19 -13 41 -20 49 -7 8 -18 32 -24 52
-7 20 -19 42 -27 48 -7 7 -14 17 -14 23 0 5 -11 25 -25 43 -14 18 -25 38 -25
43 0 18 -110 191 -166 262 -28 36 -82 110 -119 165 -121 177 -304 380 -433
481 -48 37 -119 96 -158 132 -39 36 -100 81 -136 100 -56 28 -225 151 -291
212 -10 9 -53 26 -95 38 -42 12 -129 41 -192 63 -63 22 -138 49 -166 58 -29
10 -69 30 -90 44 -60 39 -393 130 -516 141 -40 4 -119 15 -176 26 -95 17 -178
22 -242 13z"/>
<path d="M15050 28220 c0 -5 4 -10 9 -10 16 0 6 -180 -13 -245 -55 -182 -89
-288 -102 -313 -7 -15 -14 -34 -14 -42 0 -28 -58 -137 -81 -154 -13 -9 -39
-16 -59 -16 -39 0 -47 -10 -115 -135 -21 -38 -46 -81 -56 -95 -18 -26 -47
-107 -69 -190 -12 -44 -40 -117 -60 -152 -6 -10 -25 -46 -44 -81 -18 -35 -50
-87 -70 -116 -50 -74 -48 -86 19 -106 72 -20 150 -93 160 -149 16 -85 -11
-155 -110 -281 -17 -22 -47 -67 -65 -100 -18 -33 -57 -93 -87 -132 -64 -85
-91 -98 -166 -76 -43 13 -51 12 -73 -2 -30 -20 -34 -30 -73 -187 -28 -113 -55
-195 -80 -239 -5 -9 -35 -65 -66 -124 -65 -122 -67 -141 -36 -254 23 -82 32
-96 64 -104 12 -3 40 -12 62 -21 28 -10 78 -15 165 -16 69 0 174 -7 233 -15
60 -8 183 -15 275 -16 166 -2 243 -8 314 -27 41 -11 51 -7 143 55 27 18 73 40
104 49 31 9 61 20 66 24 6 5 64 18 130 30 66 11 138 25 160 30 22 5 88 10 147
10 88 0 115 -4 155 -22 40 -18 65 -21 145 -20 98 1 270 35 348 67 61 26 142
37 273 36 141 -1 180 -11 215 -56 16 -21 22 -41 22 -82 0 -42 4 -55 18 -59 51
-15 107 -52 127 -83 12 -20 32 -44 43 -54 20 -18 21 -18 31 2 6 11 11 28 11
39 0 11 6 37 14 59 22 63 25 122 10 233 -22 161 -31 197 -70 266 -25 46 -41
64 -56 64 -19 0 -20 -4 -12 -82 9 -98 8 -122 -6 -148 -16 -30 -53 -34 -176
-20 -126 15 -317 4 -481 -27 -67 -12 -155 -17 -363 -18 -151 -1 -313 -6 -360
-13 -47 -6 -204 -11 -350 -11 -252 1 -269 2 -338 25 -85 28 -114 30 -173 8
-49 -18 -251 -31 -321 -20 -24 4 -66 21 -94 39 -62 41 -68 71 -26 154 16 32
55 119 87 193 31 74 62 144 69 155 24 38 54 140 61 210 7 69 21 107 150 425
63 155 75 195 75 254 0 81 24 145 132 356 56 107 131 254 168 325 36 72 87
162 113 201 25 38 60 101 77 140 17 38 40 87 50 109 44 96 70 179 70 220 0 25
-4 45 -10 45 -5 0 -10 -7 -10 -15 0 -9 -11 -27 -25 -41 -14 -14 -34 -40 -43
-57 -34 -63 -65 -97 -78 -86 -27 22 -36 102 -28 255 3 84 3 173 0 198 -6 40
-10 46 -32 46 -13 0 -24 -4 -24 -10z"/>
<path d="M25401 27728 c-11 -29 -29 -153 -41 -293 -5 -60 -15 -137 -22 -170
-8 -36 -13 -135 -13 -245 0 -154 3 -190 17 -215 9 -17 19 -64 23 -105 4 -41
15 -106 25 -145 10 -38 24 -121 30 -183 6 -62 15 -123 20 -137 23 -61 49 -522
31 -567 -13 -35 -45 -51 -98 -50 -37 0 -44 -3 -49 -24 -8 -31 3 -89 24 -129
21 -41 31 -578 12 -688 -10 -60 -9 -76 3 -99 21 -42 128 -108 195 -122 15 -3
88 -10 162 -15 81 -6 150 -16 174 -26 57 -24 168 -28 516 -17 246 8 340 15
427 32 103 19 115 20 149 5 20 -8 48 -15 61 -15 14 0 102 38 195 85 94 47 176
85 182 85 7 0 25 13 40 29 27 28 27 30 11 55 -9 14 -25 28 -35 31 -28 9 -237
-14 -334 -37 -80 -18 -97 -19 -155 -8 -55 10 -82 9 -161 -4 -85 -13 -103 -13
-175 0 -155 30 -363 46 -656 51 -291 5 -296 5 -325 28 l-29 23 1 144 c0 78 6
219 13 311 10 133 10 178 1 219 -8 33 -10 77 -5 127 3 42 10 139 14 216 5 91
13 152 23 175 20 45 43 497 33 657 -6 101 -4 122 20 220 43 172 26 293 -55
398 -22 28 -47 69 -56 90 l-16 40 -17 -34 c-10 -21 -27 -38 -45 -44 -67 -22
-95 80 -61 219 16 61 17 79 6 113 -14 47 -45 57 -60 19z"/>
<path d="M17023 26398 c-28 -57 -56 -128 -63 -158 -7 -30 -16 -59 -20 -65 -10
-12 -57 -146 -71 -200 -11 -44 -2 -162 13 -171 25 -15 43 28 54 131 19 165 63
294 127 367 31 36 57 104 57 150 0 18 -24 47 -41 48 -3 0 -28 -46 -56 -102z"/>
<path d="M33239 25059 c-20 -39 -13 -101 19 -176 18 -39 32 -76 32 -81 0 -6
14 -21 31 -33 29 -20 33 -21 56 -7 14 8 35 32 46 52 18 32 19 38 7 45 -81 47
-89 55 -111 115 -22 61 -48 105 -61 106 -4 0 -12 -9 -19 -21z"/>
<path d="M29310 20865 c-8 -2 -60 -9 -115 -16 -136 -17 -226 -58 -310 -142
-79 -79 -119 -158 -150 -297 -31 -136 -31 -211 -1 -321 30 -108 87 -197 193
-302 76 -75 121 -111 319 -252 153 -110 205 -157 266 -236 101 -134 113 -234
43 -369 -16 -30 -101 -110 -119 -110 -6 -1 -29 -9 -51 -20 -60 -29 -134 -26
-210 9 -110 51 -184 151 -206 278 -18 99 -34 113 -130 113 -61 0 -78 -3 -83
-16 -36 -94 77 -307 211 -396 99 -66 154 -87 260 -98 326 -34 534 90 573 342
22 150 -23 270 -150 397 -67 67 -192 166 -259 206 -53 32 -183 138 -246 203
-59 59 -85 96 -127 179 l-53 105 0 151 c0 152 0 152 35 231 58 131 156 222
267 246 25 6 57 3 109 -11 199 -52 308 -240 291 -502 -8 -123 -2 -134 81 -143
130 -14 146 12 146 241 1 148 0 151 -33 227 -23 54 -51 96 -90 137 -52 55 -81
72 -216 131 -11 5 -54 14 -95 20 -108 15 -133 18 -150 15z"/>
<path d="M40945 20845 c-275 -42 -445 -269 -445 -595 0 -109 26 -221 65 -278
14 -20 25 -41 25 -47 0 -21 134 -157 224 -229 86 -69 122 -95 276 -202 117
-82 214 -185 258 -274 23 -47 27 -68 27 -140 0 -102 -15 -138 -85 -206 -99
-96 -214 -118 -333 -65 -111 50 -177 139 -207 276 -7 33 -19 72 -26 88 -14 26
-17 27 -99 27 -84 0 -85 0 -91 -27 -8 -31 11 -136 30 -167 97 -157 118 -180
221 -242 112 -67 123 -69 325 -69 185 0 185 0 240 29 114 60 160 106 204 205
25 57 28 77 29 165 0 96 -2 105 -37 178 -46 97 -106 160 -296 311 -30 24 -69
51 -87 60 -62 33 -229 175 -280 238 -64 81 -118 185 -139 269 -68 269 120 603
341 604 106 0 223 -68 289 -167 54 -82 68 -143 72 -302 5 -192 1 -182 79 -190
84 -9 106 -3 130 37 18 29 20 51 20 188 0 142 -2 160 -25 215 -104 254 -353
364 -705 310z"/>
<path d="M24485 20800 c-128 -17 -269 -121 -332 -246 -48 -94 -81 -183 -93
-251 -6 -35 -18 -82 -27 -105 -14 -37 -17 -94 -17 -388 -1 -325 0 -351 22
-455 55 -255 77 -329 137 -440 60 -111 91 -151 168 -211 89 -70 191 -90 319
-63 53 12 79 27 171 103 56 45 135 153 172 236 9 19 25 53 36 76 10 22 19 47
19 55 0 8 9 31 20 52 11 20 24 68 30 105 5 37 16 84 24 104 40 95 40 798 0
894 -8 19 -20 61 -25 91 -6 31 -16 66 -24 77 -7 12 -18 39 -25 60 -18 55 -85
150 -145 203 -107 95 -242 127 -430 103z m158 -129 c111 -26 198 -144 254
-346 45 -160 58 -659 24 -940 -17 -143 -63 -300 -122 -420 -44 -88 -55 -103
-117 -157 -40 -36 -46 -38 -110 -38 -64 0 -71 2 -110 35 -72 62 -158 235 -176
355 -4 25 -17 83 -29 130 -20 80 -21 108 -21 475 0 287 3 402 13 435 7 25 21
79 31 120 26 109 81 220 135 276 68 70 143 94 228 75z"/>
<path d="M26171 20799 c-171 -12 -279 -49 -282 -97 0 -9 -1 -357 0 -772 0
-415 -3 -849 -7 -965 -7 -195 -6 -212 11 -237 16 -24 25 -28 67 -28 68 0 80
19 80 130 0 47 5 123 11 170 6 47 14 142 18 213 8 155 11 160 111 165 79 5
121 -8 144 -43 9 -13 31 -68 50 -122 19 -54 47 -129 61 -168 15 -38 35 -95 45
-125 76 -221 75 -220 181 -220 43 0 89 4 102 9 31 12 39 43 18 73 -23 33 -57
98 -170 325 -97 192 -101 204 -101 266 0 75 1 76 113 138 141 79 258 188 318
299 11 19 24 42 29 50 5 8 22 47 37 85 27 67 28 76 25 219 -2 99 -7 157 -16
175 -8 14 -17 42 -21 61 -12 63 -64 155 -121 218 -52 58 -133 122 -155 122 -5
0 -35 11 -67 24 -39 16 -87 25 -152 30 -52 3 -120 8 -150 10 -30 2 -111 0
-179 -5z m212 -129 c168 -25 289 -133 355 -318 24 -69 27 -90 27 -213 0 -144
3 -130 -66 -286 -23 -53 -100 -154 -144 -191 -89 -73 -297 -162 -380 -162 -45
0 -84 34 -95 85 -10 43 4 320 20 420 6 33 14 176 19 318 l9 258 27 39 c16 22
37 42 49 45 12 2 30 6 41 8 35 8 68 7 138 -3z"/>
<path d="M32594 20799 c-99 -5 -152 -13 -217 -33 -81 -25 -86 -28 -97 -61 -8
-23 -10 -68 -6 -128 4 -51 5 -402 4 -782 -4 -1096 -4 -1063 9 -1076 6 -6 34
-14 61 -17 46 -4 49 -3 60 24 6 16 17 154 25 306 18 350 14 342 174 343 68 0
75 -2 102 -30 17 -17 41 -62 56 -105 15 -41 55 -156 90 -255 103 -295 96 -285
195 -285 85 0 120 12 120 41 0 11 -25 69 -56 127 -154 292 -224 439 -231 487
-8 64 13 95 99 140 197 103 344 264 405 444 23 67 26 91 26 206 -1 215 -52
368 -161 486 -129 140 -307 185 -658 168z m182 -129 c93 -15 168 -54 240 -125
78 -76 115 -154 143 -295 17 -92 18 -106 4 -187 -29 -172 -142 -367 -248 -427
-17 -9 -52 -31 -80 -48 -104 -64 -260 -101 -313 -74 -55 29 -64 66 -57 249 3
89 10 221 15 292 5 72 14 207 21 300 12 184 28 262 58 289 38 35 110 43 217
26z"/>
<path d="M11500 20790 c-36 -5 -83 -15 -105 -24 -22 -8 -48 -15 -58 -16 -11 0
-24 -14 -33 -35 -12 -31 -13 -76 -5 -313 10 -273 8 -651 -5 -1317 -6 -339 -6
-340 15 -362 27 -29 83 -31 109 -5 16 16 20 50 31 288 14 313 22 345 88 363
55 16 129 13 163 -4 32 -17 67 -77 94 -160 8 -27 28 -86 44 -130 63 -174 94
-261 103 -289 5 -16 21 -42 36 -58 23 -24 34 -28 83 -28 69 0 117 15 125 39 6
19 -20 77 -96 216 -27 50 -58 108 -68 130 -10 22 -35 76 -56 120 -51 106 -66
166 -54 210 9 30 21 41 80 73 64 34 169 106 227 157 26 22 132 159 132 170 0
4 10 20 21 37 32 44 60 161 66 268 5 113 -26 272 -76 382 -37 81 -122 175
-194 216 -110 62 -171 74 -397 77 -113 2 -234 0 -270 -5z m291 -120 c131 -19
227 -82 304 -199 63 -97 89 -191 90 -326 0 -113 -11 -161 -57 -260 -61 -131
-156 -238 -248 -281 -8 -4 -31 -17 -50 -29 -45 -28 -195 -75 -237 -75 -40 0
-98 48 -106 87 -8 43 11 516 27 663 8 74 18 180 21 235 7 114 33 170 83 181
15 3 32 7 37 9 19 6 70 5 136 -5z"/>
<path d="M37447 20764 c-109 -33 -170 -68 -247 -145 -98 -96 -159 -219 -204
-412 -35 -146 -46 -268 -46 -494 0 -229 9 -321 50 -488 74 -308 242 -493 490
-541 96 -18 143 -18 226 2 97 22 189 74 247 139 72 82 137 213 145 297 6 63
-7 78 -67 78 -39 0 -52 -5 -73 -27 -14 -16 -29 -39 -33 -53 -14 -48 -59 -145
-87 -186 -40 -60 -114 -111 -189 -130 -59 -15 -67 -15 -119 1 -122 39 -204
133 -279 322 -12 28 -21 61 -21 72 0 12 -9 47 -20 78 -52 154 -52 694 1 888
55 203 95 282 191 374 78 75 121 93 226 94 104 1 140 -14 219 -95 66 -67 110
-157 135 -278 26 -123 37 -140 89 -140 22 0 55 7 74 14 33 14 35 17 35 66 0
65 -42 245 -73 307 -58 121 -158 213 -280 258 -60 22 -83 25 -190 24 -97 -1
-138 -6 -200 -25z"/>
<path d="M46890 20761 c-106 -35 -148 -60 -229 -136 -88 -83 -158 -199 -180
-296 -6 -26 -16 -59 -22 -75 -6 -16 -22 -99 -35 -184 -34 -220 -33 -464 1
-685 28 -178 62 -303 100 -367 14 -24 34 -61 45 -83 26 -55 132 -153 209 -194
72 -38 199 -70 278 -71 65 0 164 25 228 58 132 70 275 281 275 408 0 38 -29
64 -72 64 -56 0 -73 -17 -108 -108 -56 -148 -118 -225 -218 -274 -65 -31 -117
-33 -182 -9 -147 56 -221 158 -299 412 -35 114 -64 467 -51 615 27 297 45 386
108 529 99 224 317 331 491 240 104 -53 198 -212 220 -369 15 -103 28 -120 98
-114 82 7 87 15 80 133 -13 226 -124 408 -304 496 -66 33 -71 34 -208 36 -129
2 -147 0 -225 -26z"/>
<path d="M3396 20759 c-134 -20 -183 -39 -197 -75 -12 -33 -12 -1884 0 -1917
16 -42 89 -64 254 -78 175 -14 316 -2 411 37 33 13 65 24 73 24 7 0 13 4 13 8
0 5 17 18 38 30 123 72 178 180 170 336 -6 129 -70 222 -204 296 -74 40 -84
53 -84 98 0 22 19 42 91 102 50 41 111 99 136 129 54 67 127 216 143 295 26
128 -23 384 -95 491 -93 139 -184 192 -391 225 -143 24 -202 23 -358 -1z m287
-120 c110 -27 181 -76 245 -169 145 -208 116 -518 -72 -772 -75 -102 -217
-201 -327 -230 -41 -10 -51 -9 -73 5 -58 39 -56 20 -57 568 0 567 -1 562 69
598 48 26 113 26 215 0z m27 -1264 c132 -13 233 -97 265 -221 13 -51 13 -64
-1 -123 -26 -115 -90 -183 -216 -228 -60 -22 -89 -26 -161 -25 -75 0 -94 4
-131 26 -29 17 -48 37 -55 57 -7 19 -11 112 -11 231 0 232 6 257 68 277 37 11
119 19 157 15 11 -2 49 -6 85 -9z"/>
<path d="M14417 20760 c-135 -24 -139 -25 -168 -56 l-24 -26 0 -948 c0 -942 0
-949 21 -976 26 -35 71 -49 209 -63 248 -25 404 -1 554 87 165 96 238 299 162
457 -33 70 -98 139 -158 167 -68 32 -103 70 -103 111 0 31 8 42 63 88 183 155
247 249 293 429 20 81 19 126 -5 266 -24 147 -71 247 -152 325 -79 78 -155
112 -308 138 -148 25 -240 25 -384 1z m300 -124 c50 -13 106 -34 125 -46 59
-40 122 -116 162 -195 38 -73 39 -80 44 -198 4 -101 1 -137 -16 -203 -61 -242
-237 -446 -445 -514 -77 -26 -103 -21 -134 27 -17 25 -18 64 -21 498 -2 258 0
495 3 525 6 44 13 60 41 87 53 49 106 54 241 19z m145 -1295 c107 -56 151
-129 152 -251 0 -62 -4 -84 -26 -126 -61 -116 -197 -186 -360 -186 -84 0 -94
3 -132 29 -59 41 -65 68 -65 286 -1 203 6 242 50 264 45 22 54 23 186 20 127
-3 135 -5 195 -36z"/>
<path d="M22797 20745 c-30 -22 -34 -87 -8 -128 19 -30 27 -35 72 -39 62 -6
88 -30 100 -89 10 -53 11 -914 1 -1266 -9 -289 -11 -297 -93 -321 -82 -24 -94
-35 -97 -88 -5 -75 -7 -74 288 -74 296 0 300 1 300 75 0 66 -25 85 -111 85
-57 0 -72 4 -96 24 -25 21 -28 32 -31 98 -6 110 17 607 33 733 8 61 15 166 15
235 1 212 29 500 56 576 16 44 45 64 94 64 64 0 101 39 86 88 -12 38 -46 42
-324 42 -212 -1 -271 -3 -285 -15z"/>
<path d="M35758 20746 c-13 -10 -18 -28 -18 -67 0 -72 17 -94 75 -102 63 -9
84 -23 102 -65 12 -30 15 -114 13 -556 -1 -672 -12 -967 -34 -1001 -18 -28
-55 -49 -103 -60 -40 -8 -63 -38 -63 -81 0 -43 27 -73 70 -75 19 -2 130 -2
247 -1 243 2 243 2 243 81 0 62 -20 81 -84 81 -64 0 -111 22 -132 61 -14 28
-16 51 -10 139 3 58 8 159 11 225 20 443 27 575 35 639 5 39 14 172 20 296 15
305 31 350 134 369 59 11 82 36 76 86 -4 42 -22 44 -300 44 -205 0 -269 -3
-282 -13z"/>
<path d="M18514 20743 c-5 -4 -18 -19 -27 -33 -15 -22 -17 -75 -17 -581 l0
-556 -22 -33 c-13 -19 -36 -37 -53 -41 -16 -5 -127 -9 -246 -10 -193 -1 -221
1 -248 17 -22 13 -33 29 -37 53 -4 20 -4 177 0 351 6 286 10 379 32 680 6 93
6 95 -20 119 -21 19 -39 25 -98 29 -64 4 -76 1 -101 -18 l-27 -22 6 -891 c6
-900 11 -1042 36 -1058 17 -11 89 -11 107 0 20 13 29 93 30 258 1 213 20 273
91 303 20 8 96 11 247 8 311 -4 299 7 295 -286 -2 -112 -1 -220 3 -241 8 -48
43 -63 109 -49 56 12 52 -11 66 353 5 154 15 318 20 365 6 47 15 202 20 345 5
143 14 298 20 345 34 282 44 560 22 582 -15 15 -190 24 -208 11z"/>
<path d="M6550 20728 c-50 -27 -47 -118 4 -138 14 -5 70 -9 124 -9 112 1 150
-12 172 -58 11 -23 14 -183 14 -891 l1 -864 24 -19 c13 -10 38 -19 57 -19 30
0 34 4 43 38 7 24 11 328 11 885 0 780 1 851 17 878 9 15 24 32 32 36 9 4 96
10 194 13 l179 5 24 29 c33 38 30 86 -7 103 -39 19 -855 29 -889 11z"/>
<path d="M8026 20718 c-37 -31 -40 -79 -7 -111 19 -20 35 -23 144 -27 67 -3
128 -9 135 -13 6 -5 20 -23 30 -40 16 -30 17 -99 22 -900 5 -845 6 -869 24
-883 25 -18 57 -18 82 0 18 14 19 38 24 893 3 483 9 886 13 895 19 37 69 48
214 48 171 0 208 6 221 34 23 46 23 64 0 90 l-23 26 -425 6 -425 7 -29 -25z"/>
<path d="M43480 20714 l-31 -26 5 -162 c3 -88 8 -525 12 -971 4 -445 11 -820
15 -832 8 -23 9 -23 249 -23 316 0 526 15 560 39 35 25 40 91 9 119 -20 20
-35 21 -290 21 -293 0 -299 1 -331 60 -19 35 -15 658 5 941 24 325 27 387 29
614 1 206 1 209 -21 228 -18 14 -40 18 -101 18 -70 0 -82 -3 -110 -26z"/>
<path d="M44994 20715 l-25 -25 6 -273 c4 -149 8 -299 10 -332 2 -33 3 -349 4
-702 1 -633 1 -643 21 -663 20 -20 31 -21 243 -19 322 3 509 14 546 34 28 14
31 20 31 64 0 32 -5 53 -16 62 -13 10 -74 13 -273 14 -237 1 -260 2 -296 21
-26 13 -47 34 -59 59 -18 37 -19 49 -7 269 6 127 16 389 21 581 9 316 16 451
39 770 4 55 6 107 4 116 -9 32 -57 49 -142 49 -74 0 -84 -2 -107 -25z"/>
<path d="M22051 20720 c-18 -4 -39 -14 -46 -21 -14 -16 -65 -224 -65 -267 0
-16 -9 -62 -19 -103 -10 -41 -24 -108 -30 -149 -6 -41 -18 -97 -26 -125 -7
-27 -16 -77 -20 -110 -3 -33 -15 -89 -25 -125 -10 -36 -21 -94 -25 -129 -3
-35 -13 -83 -20 -106 -8 -22 -21 -83 -29 -135 -8 -52 -22 -115 -30 -139 -9
-24 -16 -58 -16 -77 0 -92 -69 -161 -121 -121 -26 20 -37 49 -48 128 -5 41
-17 90 -25 109 -8 19 -17 62 -21 95 -4 33 -16 85 -25 115 -10 30 -21 84 -25
120 -4 36 -14 81 -22 100 -8 19 -21 81 -28 136 -8 56 -20 115 -26 130 -6 16
-17 72 -24 124 -8 52 -21 124 -29 160 -8 36 -20 94 -25 130 -6 36 -19 101 -29
145 -16 68 -23 82 -48 97 -39 24 -125 24 -153 1 l-20 -18 19 -80 c10 -44 23
-102 28 -130 10 -55 36 -160 59 -243 8 -29 23 -99 33 -155 20 -108 38 -196 70
-342 11 -49 22 -110 25 -135 4 -25 13 -70 22 -100 8 -30 21 -91 28 -135 18
-109 42 -230 70 -355 13 -58 27 -125 30 -150 17 -123 41 -140 198 -140 58 0
116 4 130 9 28 11 62 102 77 209 5 37 16 85 23 107 8 22 20 77 26 123 7 45 18
97 25 115 8 17 17 61 21 97 4 35 14 82 22 104 7 22 20 85 28 139 9 54 20 107
25 117 5 10 15 42 20 72 6 29 19 87 30 128 35 136 51 204 70 293 11 48 24 96
29 106 6 10 15 49 21 87 6 38 18 82 25 98 8 16 18 64 21 107 l7 78 -27 11
c-31 11 -86 12 -135 0z"/>
<path d="M19790 20707 c-32 -16 -57 -68 -65 -137 -4 -30 -15 -86 -25 -125 -10
-38 -21 -90 -24 -115 -4 -25 -15 -85 -26 -135 -11 -49 -26 -130 -35 -180 -18
-109 -38 -210 -64 -330 -11 -49 -32 -148 -46 -220 -27 -137 -46 -227 -65 -310
-6 -27 -23 -102 -37 -165 -13 -63 -31 -145 -40 -182 -18 -82 -10 -103 46 -113
55 -9 110 3 126 29 7 11 16 37 20 56 12 68 47 215 56 238 5 12 23 31 41 42 30
18 51 20 266 20 250 0 286 -6 315 -52 13 -20 40 -130 62 -248 11 -58 30 -78
80 -85 61 -10 135 2 142 22 8 21 -17 152 -82 418 -42 174 -64 263 -74 305 -7
25 -20 83 -30 130 -11 47 -28 123 -40 170 -34 141 -59 262 -66 320 -4 30 -12
66 -17 80 -5 14 -18 70 -28 125 -10 55 -25 125 -34 155 -9 30 -16 69 -16 86 0
38 -36 160 -56 192 -14 21 -21 22 -137 22 -78 0 -131 -5 -147 -13z m201 -415
c12 -31 44 -169 60 -257 6 -33 19 -98 29 -145 11 -47 22 -110 25 -140 4 -30
13 -77 21 -105 17 -56 43 -211 51 -295 5 -51 3 -58 -23 -84 -16 -15 -39 -32
-52 -37 -13 -5 -94 -9 -180 -9 -182 0 -215 10 -245 73 -18 35 -18 42 -3 105 8
37 20 99 25 137 6 39 17 93 26 120 8 28 15 61 15 75 0 14 12 75 26 135 31 134
68 300 84 377 8 43 19 64 41 83 29 24 32 24 60 9 16 -8 35 -27 40 -42z"/>
<path d="M34005 20705 c-19 -15 -19 -17 -2 -103 10 -48 24 -114 32 -147 43
-178 66 -280 84 -370 11 -55 32 -156 47 -225 30 -141 55 -266 83 -421 11 -59
27 -135 35 -170 8 -35 31 -147 51 -249 20 -102 42 -206 51 -231 21 -64 42 -72
194 -67 137 3 143 7 155 81 4 23 13 65 21 92 12 46 20 81 60 280 8 39 22 99
30 135 9 36 22 97 30 135 12 64 35 169 94 434 11 52 23 98 26 102 2 4 13 47
23 96 11 48 35 149 54 223 71 283 89 369 83 394 -6 25 -9 26 -89 26 -55 0 -90
-5 -102 -14 -21 -15 -51 -138 -80 -321 -9 -55 -20 -114 -26 -131 -5 -18 -18
-78 -29 -135 -10 -57 -27 -154 -38 -215 -11 -61 -25 -129 -31 -150 -16 -60
-59 -271 -71 -349 -16 -98 -46 -218 -63 -252 -8 -15 -26 -39 -40 -51 -20 -19
-29 -22 -44 -13 -35 18 -41 34 -73 181 -17 80 -42 192 -55 250 -42 184 -63
283 -75 350 -6 36 -17 97 -25 135 -29 135 -64 320 -70 370 -4 28 -13 73 -20
100 -7 28 -16 73 -20 100 -10 81 -24 114 -55 130 -37 19 -119 19 -145 0z"/>
<path d="M4971 20683 l-21 -26 2 -841 c1 -463 4 -891 6 -953 l3 -111 34 -16
c28 -14 90 -16 452 -16 477 0 453 -4 453 82 0 78 6 76 -330 79 -320 2 -367 8
-410 55 -25 26 -25 26 -25 249 0 209 1 224 20 245 11 12 31 27 45 32 13 5 139
11 279 14 219 3 257 6 273 21 26 23 24 86 -3 112 -20 18 -39 20 -273 23 -271
3 -288 7 -317 59 -14 27 -22 748 -8 800 5 19 20 46 35 60 l26 24 351 5 352 5
13 27 c9 19 10 38 4 60 l-8 33 -466 3 -466 2 -21 -27z"/>
<path d="M9636 20697 c-17 -12 -17 -66 -16 -977 1 -843 3 -967 16 -980 12 -13
80 -15 460 -18 326 -2 450 1 460 9 15 12 20 115 6 136 -5 8 -101 14 -342 18
-370 8 -380 9 -406 70 -17 42 -20 404 -3 453 21 61 32 64 324 63 226 -1 266 1
279 15 31 31 33 88 4 126 -11 15 -44 17 -273 20 -143 3 -268 8 -277 12 -10 4
-27 23 -38 41 -19 31 -20 49 -20 422 0 388 0 390 23 424 12 18 33 36 47 40 14
4 175 7 358 8 318 1 333 2 352 21 27 27 27 85 1 100 -31 16 -932 14 -955 -3z"/>
<path d="M16018 20703 c-10 -2 -22 -21 -28 -42 -10 -38 -5 -1851 6 -1899 2
-12 16 -27 30 -32 15 -6 201 -10 447 -10 482 0 467 -2 467 76 0 66 -23 84
-107 84 -38 1 -180 3 -318 6 -280 6 -307 12 -331 70 -17 40 -20 417 -4 458 18
49 45 54 325 60 249 6 261 7 278 27 21 26 22 78 3 105 -13 18 -32 19 -273 24
-280 6 -291 8 -320 63 -15 28 -17 75 -17 417 -1 357 0 388 17 414 35 53 57 56
412 56 312 0 326 1 345 20 27 27 26 75 -2 94 -20 14 -80 16 -468 15 -245 -1
-453 -3 -462 -6z"/>
<path d="M30623 20698 c-14 -7 -24 -23 -28 -47 -3 -20 -4 -454 -1 -966 l5
-930 21 -17 c21 -17 57 -18 460 -18 418 0 438 1 454 19 20 22 24 104 6 126 -9
11 -75 14 -333 17 -234 3 -331 8 -355 17 -58 23 -65 50 -65 281 0 130 4 215
11 232 24 58 40 61 320 66 292 5 302 7 302 70 0 27 -7 45 -23 60 -23 21 -31
22 -264 22 -258 0 -290 5 -320 48 -17 25 -18 57 -18 417 0 215 3 402 8 417 17
61 27 63 409 68 263 4 350 8 360 18 13 13 16 87 3 100 -12 12 -927 12 -952 0z"/>
<path d="M38923 20700 c-16 -6 -23 -21 -28 -52 -4 -24 -5 -460 -3 -970 2 -744
6 -930 16 -940 10 -10 109 -14 454 -16 507 -3 488 -6 488 76 0 85 15 81 -330
82 -168 1 -322 6 -342 11 -21 5 -50 20 -65 33 l-28 24 -3 220 c-4 235 2 267
47 292 11 5 137 13 288 16 295 7 293 6 293 70 0 18 -4 44 -9 58 l-10 25 -270
3 -271 3 -26 26 c-15 16 -30 45 -35 70 -9 51 -12 628 -3 716 5 44 14 68 34 94
l29 34 356 5 c338 5 357 6 371 24 8 11 14 31 14 45 -1 58 21 56 -482 58 -255
1 -473 -2 -485 -7z"/>
<path d="M30836 15095 c-8 -33 -10 -171 -2 -184 5 -7 15 -7 33 0 15 5 32 8 38
5 19 -7 31 6 54 56 16 36 28 49 49 54 49 11 48 12 -14 13 -60 1 -108 24 -140
67 -10 12 -13 11 -18 -11z"/>
<path d="M46141 15071 c-14 -65 -14 -126 -1 -151 8 -15 17 -18 43 -13 48 9 58
17 81 64 17 35 29 45 61 55 l40 12 -58 1 c-55 1 -127 24 -127 40 0 4 -6 16
-14 26 -12 17 -14 14 -25 -34z"/>
<path d="M3001 15093 c-5 -11 -13 -54 -17 -95 -6 -72 -5 -76 15 -83 43 -13 82
5 110 51 20 34 35 46 71 58 l45 14 -58 1 c-67 1 -118 20 -140 51 -15 21 -16
21 -26 3z"/>
<path d="M43975 14712 c-3 -3 -5 -19 -5 -36 0 -33 50 -176 62 -176 4 0 10 12
14 28 3 15 12 48 21 74 22 73 16 89 -39 103 -26 6 -50 10 -53 7z"/>
</g>
</svg>
